<?xml version="1.0" encoding="iso-8859-1"?>
<!-- Uploaded to: SVG Repo, www.svgrepo.com, Generator: SVG Repo Mixer Tools -->
<svg fill="#000000" version="1.1" id="Layer_1" xmlns="http://www.w3.org/2000/svg" xmlns:xlink="http://www.w3.org/1999/xlink" 
	 viewBox="0 0 472.623 472.623" xml:space="preserve">
<g>
	<g>
		<path d="M157.062,56.669c-0.985-3.151-3.545-5.514-6.794-6.4l-40.271-11.028L87.056,4.287c-3.643-5.514-12.898-5.514-16.542,0
			L47.573,39.241L7.302,50.269c-3.249,0.886-5.809,3.249-6.794,6.4c-1.083,3.151-0.394,6.695,1.674,9.255l26.191,32.591
			l-2.068,41.748c-0.098,3.348,1.378,6.498,4.135,8.468c2.659,1.969,6.105,2.462,9.255,1.28l39.089-14.868l39.089,14.868
			c1.182,0.394,2.363,0.591,3.545,0.591c1.969,0,4.037-0.591,5.711-1.871c2.757-1.969,4.234-5.12,4.135-8.468l-2.068-41.748
			l26.191-32.591C157.456,63.364,158.145,59.819,157.062,56.669z"/>
	</g>
</g>
<g>
	<g>
		<rect x="196.931" y="49.058" width="167.385" height="19.692"/>
	</g>
</g>
<g>
	<g>
		<rect x="196.931" y="98.288" width="275.692" height="19.692"/>
	</g>
</g>
<g>
	<g>
		<path d="M157.062,217.653c-0.985-3.151-3.545-5.612-6.794-6.498l-40.271-11.028l-22.942-34.954
			c-3.643-5.514-12.898-5.514-16.542,0l-22.942,34.954L7.302,211.155c-3.249,0.886-5.809,3.348-6.794,6.498
			c-1.083,3.151-0.394,6.597,1.674,9.157l26.191,32.591l-2.068,41.846c-0.098,3.249,1.378,6.498,4.135,8.369
			c2.659,1.969,6.105,2.462,9.255,1.28l39.089-14.769l39.089,14.769c1.182,0.394,2.363,0.689,3.545,0.689
			c1.969,0,4.037-0.689,5.711-1.969c2.757-1.871,4.234-5.12,4.135-8.369l-2.068-41.846l26.191-32.591
			C157.456,224.25,158.145,220.804,157.062,217.653z"/>
	</g>
</g>
<g>
	<g>
		<rect x="196.931" y="206.596" width="167.385" height="19.692"/>
	</g>
</g>
<g>
	<g>
		<rect x="196.931" y="255.827" width="275.692" height="19.692"/>
	</g>
</g>
<g>
	<g>
		<path d="M157.062,378.539c-0.985-3.151-3.545-5.612-6.794-6.498l-40.271-10.929l-22.942-35.052
			c-3.643-5.514-12.898-5.514-16.542,0l-22.942,35.052L7.302,372.041c-3.249,0.886-5.809,3.348-6.794,6.498
			c-1.083,3.151-0.394,6.597,1.674,9.157l26.191,32.689l-2.068,41.748c-0.098,3.348,1.378,6.498,4.135,8.468
			c2.659,1.871,6.105,2.363,9.255,1.182l39.089-14.769l39.089,14.769c1.182,0.492,2.363,0.689,3.545,0.689
			c1.969,0,4.037-0.689,5.711-1.871c2.757-1.969,4.234-5.12,4.135-8.468l-2.068-41.748l26.191-32.689
			C157.456,385.136,158.145,381.69,157.062,378.539z"/>
	</g>
</g>
<g>
	<g>
		<rect x="196.931" y="373.981" width="167.385" height="19.692"/>
	</g>
</g>
<g>
	<g>
		<rect x="196.931" y="423.211" width="275.692" height="19.692"/>
	</g>
</g>
</svg>